<svg width="32" height="32" viewBox="0 0 32 32" fill="none" xmlns="http://www.w3.org/2000/svg">
  <path d="M24.5 12.5C24.5 8.5 21.5 5.5 17.5 5.5C13.5 5.5 10.5 8.5 10.5 12.5C10.5 16.5 13.5 19.5 17.5 19.5C21.5 19.5 24.5 16.5 24.5 12.5Z" fill="#4285F4"/>
  <path d="M17.5 7.5C14.5 7.5 12.5 9.5 12.5 12.5C12.5 15.5 14.5 17.5 17.5 17.5C20.5 17.5 22.5 15.5 22.5 12.5C22.5 9.5 20.5 7.5 17.5 7.5Z" fill="white"/>
  <path d="M17.5 9.5C15.5 9.5 14.5 10.5 14.5 12.5C14.5 14.5 15.5 15.5 17.5 15.5C19.5 15.5 20.5 14.5 20.5 12.5C20.5 10.5 19.5 9.5 17.5 9.5Z" fill="#4285F4"/>
  <path d="M17.5 11.5C16.5 11.5 16.5 12.5 16.5 12.5C16.5 12.5 16.5 13.5 17.5 13.5C18.5 13.5 18.5 12.5 18.5 12.5C18.5 12.5 18.5 11.5 17.5 11.5Z" fill="white"/>
</svg>
